<svg xmlns="http://www.w3.org/2000/svg" xmlns:xlink="http://www.w3.org/1999/xlink" width="24" height="24" viewBox="0 0 24 24">
  <defs>
    <clipPath id="clip-_02-Credito">
      <rect width="24" height="24"/>
    </clipPath>
  </defs>
  <g id="_02-Credito" data-name="02-Credito" clip-path="url(#clip-_02-Credito)">
    <rect width="24" height="24" fill="#FFF"/>
    <g id="wallet" transform="translate(-42.803 0)">
      <path id="Trazado_20" data-name="Trazado 20" d="M213.812,53.994l-.222-.079V52.42a.705.705,0,0,1,.371.238.469.469,0,0,0,.768-.538,1.714,1.714,0,0,0-1.138-.66v-.1a.469.469,0,0,0-.938,0v.132q-.105.023-.214.056a1.579,1.579,0,0,0-1.076,1.385,1.472,1.472,0,0,0,.9,1.466c.086.041.221.1.392.163v1.79a1.2,1.2,0,0,1-.6-.368.469.469,0,0,0-.73.588,2.235,2.235,0,0,0,1.329.744v.064a.469.469,0,0,0,.938,0v-.028a1.644,1.644,0,0,0,1.556-1.4A1.882,1.882,0,0,0,213.812,53.994Zm-1.514-.989a.657.657,0,0,1,.355-.535v1.08A.539.539,0,0,1,212.3,53.005Zm1.919,2.831a.7.7,0,0,1-.626.569V54.913a.929.929,0,0,1,.626.923Z" transform="translate(-158.516 -48.508)" fill="green"/>
      <path id="Trazado_21" data-name="Trazado 21" d="M89.624,262.462v-8.2h10.651a.469.469,0,0,0,0-.938H89.155a.469.469,0,0,0-.469.469v9.135a.469.469,0,0,0,.469.469h11.12a.469.469,0,1,0,0-.937Z" transform="translate(-41.726 -241.452)" fill="green"/>
      <path id="Trazado_22" data-name="Trazado 22" d="M64.229,14.545h-.517V10.291a.469.469,0,0,0-.469-.469H58.859a5.847,5.847,0,1,0-8.579,0H46.293a1.387,1.387,0,0,0-1.385,1.386V22.615A1.387,1.387,0,0,0,46.293,24h16.95a.469.469,0,0,0,.469-.469V19.277h.517a.469.469,0,0,0,.469-.469V15.014A.469.469,0,0,0,64.229,14.545ZM49.66,5.848a4.909,4.909,0,1,1,7.794,3.974H51.685A4.913,4.913,0,0,1,49.66,5.848ZM62.775,23.062H46.293a.448.448,0,0,1-.448-.448V11.208a.448.448,0,0,1,.448-.448H62.775v3.785H58.549a.469.469,0,0,0-.469.469v3.794a.469.469,0,0,0,.469.469h4.226v3.785Zm.986-4.723H59.017V15.483H63.76Z" transform="translate(0)" fill="green"/>
      <path id="Trazado_23" data-name="Trazado 23" d="M369.864,351.966h.758a.469.469,0,0,0,0-.937h-.758a.469.469,0,1,0,0,.938Z" transform="translate(-309.277 -334.574)" fill="green"/>
    </g>
  </g>
</svg>
