<svg xmlns="http://www.w3.org/2000/svg" xmlns:xlink="http://www.w3.org/1999/xlink" width="24" height="24" viewBox="0 0 24 24">
  <defs>
    <clipPath id="clip-_03-Captacion">
      <rect width="24" height="24"/>
    </clipPath>
  </defs>
  <g id="_03-Captacion" data-name="03-Captacion" clip-path="url(#clip-_03-Captacion)">
    <rect width="24" height="24" fill="#FFF"/>
    <g id="focus">
      <path id="Trazado_24" data-name="Trazado 24" d="M23.3,11.3H22.04A10.065,10.065,0,0,0,12.7,1.96V.7A.7.7,0,0,0,11.3.7V1.96A10.064,10.064,0,0,0,1.96,11.3H.7A.7.7,0,0,0,.7,12.7H1.96A10.064,10.064,0,0,0,11.3,22.04V23.3a.7.7,0,0,0,1.406,0V22.04A10.065,10.065,0,0,0,22.04,12.7H23.3a.7.7,0,0,0,0-1.406ZM12.7,20.629v-1.2a.7.7,0,0,0-1.406,0v1.2A8.672,8.672,0,0,1,3.371,12.7h1.2a.7.7,0,0,0,0-1.406h-1.2A8.672,8.672,0,0,1,11.3,3.371v1.2a.7.7,0,0,0,1.406,0v-1.2A8.672,8.672,0,0,1,20.629,11.3h-1.2a.7.7,0,0,0,0,1.406h1.2A8.672,8.672,0,0,1,12.7,20.629Z" fill="green"/>
      <path id="Trazado_25" data-name="Trazado 25" d="M149.437,144.2a5.241,5.241,0,1,0,5.241,5.241A5.247,5.247,0,0,0,149.437,144.2Zm0,9.075a3.835,3.835,0,1,1,3.835-3.835A3.839,3.839,0,0,1,149.437,153.271Z" transform="translate(-137.437 -137.437)" fill="green"/>
      <path id="Trazado_26" data-name="Trazado 26" d="M209.21,241.449a.7.7,0,0,0-.7.7.978.978,0,1,1-1.955,0,.7.7,0,0,0-1.406,0,2.384,2.384,0,1,0,4.768,0A.7.7,0,0,0,209.21,241.449Z" transform="translate(-195.53 -230.131)" fill="green"/>
    </g>
  </g>
</svg>
