<svg xmlns="http://www.w3.org/2000/svg" xmlns:xlink="http://www.w3.org/1999/xlink" width="24" height="24" viewBox="0 0 24 24">
  <defs>
    <clipPath id="clip-_06-Medios-de-pago">
      <rect width="24" height="24"/>
    </clipPath>
  </defs>
  <g id="_06-Medios-de-pago" data-name="06-Medios-de-pago" clip-path="url(#clip-_06-Medios-de-pago)">
    <rect width="24" height="24" fill="#FFF"/>
    <g id="_06-Medios-de-pago-2" data-name="06-Medios-de-pago">
      <g id="Grupo_11" data-name="Grupo 11">
        <g id="Grupo_10" data-name="Grupo 10">
          <path id="Trazado_41" data-name="Trazado 41" d="M10.8,13.9a5.4,5.4,0,1,0-5.4,5.4A5.378,5.378,0,0,0,10.8,13.9Zm-10,0A4.588,4.588,0,0,1,5.4,9.3a4.65,4.65,0,0,1,0,9.3A4.61,4.61,0,0,1,.8,13.9Z" fill="green"/>
          <path id="Trazado_42" data-name="Trazado 42" d="M5.8,17.8V17a1.649,1.649,0,0,0,1.5-1.7,1.685,1.685,0,0,0-1.7-1.7H5.2a1,1,0,0,1,0-2h.4a1,1,0,0,1,1,1v.2h.8v-.2a1.728,1.728,0,0,0-1.5-1.7v-.8H5v.8a1.649,1.649,0,0,0-1.5,1.7,1.685,1.685,0,0,0,1.7,1.7h.4a1,1,0,0,1,1,1,.945.945,0,0,1-1,1H5.2a1,1,0,0,1-1-1v-.2H3.5v.2A1.728,1.728,0,0,0,5,17v.8Z" fill="green"/>
          <path id="Trazado_43" data-name="Trazado 43" d="M5.8,3.1H18.2v.8H19v-2A1.988,1.988,0,0,0,17,0H7A1.988,1.988,0,0,0,5,1.9V7.7h.8Zm0-1.2A1.216,1.216,0,0,1,7,.7H17a1.216,1.216,0,0,1,1.2,1.2v.4H5.8Z" fill="green"/>
          <path id="Trazado_44" data-name="Trazado 44" d="M5,22a2.006,2.006,0,0,0,2,2H17a1.9,1.9,0,0,0,1.9-1.9V20.2H5Zm.8-1.1H18.2V22A1.216,1.216,0,0,1,17,23.2H7A1.216,1.216,0,0,1,5.8,22Z" fill="green"/>
          <rect id="Rect치ngulo_1" data-name="Rect치ngulo 1" width="3.1" height="0.8" transform="translate(10.4 21.7)" fill="green"/>
          <path id="Trazado_45" data-name="Trazado 45" d="M22.8,4.7H10.4A1.216,1.216,0,0,0,9.2,5.9V9.4H23.1v4.3a.43.43,0,0,1-.4.4H11.6v.8H22.8A1.216,1.216,0,0,0,24,13.7V5.8A1.135,1.135,0,0,0,22.8,4.7Zm.4,3.8H10.1V7H23.2Zm0-2.3H10.1V5.8a.43.43,0,0,1,.4-.4H22.9a.43.43,0,0,1,.4.4v.4Z" fill="green"/>
          <path id="Trazado_46" data-name="Trazado 46" d="M19.7,12.6a1.656,1.656,0,0,0,1.2.5,1.473,1.473,0,0,0,1.5-1.5,1.538,1.538,0,0,0-1.5-1.5,1.656,1.656,0,0,0-1.2.5,1.656,1.656,0,0,0-1.2-.5A1.473,1.473,0,0,0,17,11.6a1.538,1.538,0,0,0,1.5,1.5A1.346,1.346,0,0,0,19.7,12.6Zm1.2-1.8a.789.789,0,0,1,.8.8.736.736,0,0,1-.8.8.8.8,0,0,1,0-1.6Zm-3.1.8a.8.8,0,1,1,1.6,0,.736.736,0,0,1-.8.8A.789.789,0,0,1,17.8,11.6Z" fill="green"/>
          <rect id="Rect치ngulo_2" data-name="Rect치ngulo 2" width="0.8" height="3.9" transform="translate(18.2 15.5)" fill="green"/>
        </g>
      </g>
    </g>
  </g>
</svg>
