<svg xmlns="http://www.w3.org/2000/svg" xmlns:xlink="http://www.w3.org/1999/xlink" width="24" height="24" viewBox="0 0 24 24">
  <defs>
    <clipPath id="clip-_07-Backoffice-tesoreria">
      <rect width="24" height="24"/>
    </clipPath>
  </defs>
  <g id="_07-Backoffice-tesoreria" data-name="07-Backoffice-tesoreria" clip-path="url(#clip-_07-Backoffice-tesoreria)">
    <rect width="24" height="24" fill="#FFF"/>
    <g id="_07-Backoffice-tesoreria-2" data-name="07-Backoffice-tesoreria" transform="translate(-0.1 -0.1)">
      <path id="Trazado_47" data-name="Trazado 47" d="M6.2,17H5.5v.8A1.216,1.216,0,0,0,4.3,19a1.155,1.155,0,0,0,1.2,1.2h.8a.4.4,0,1,1,0,.8H5.1v-.4H4.3v1.2H5.5v.8h.8v-.8a1.2,1.2,0,0,0,0-2.4H5.5a.4.4,0,1,1,0-.8H6.7V19h.8V17.8H6.2Z" fill="green"/>
      <path id="Trazado_48" data-name="Trazado 48" d="M20.1,7V6.2A1.216,1.216,0,0,0,21.3,5a1.155,1.155,0,0,0-1.2-1.2h-.8a.43.43,0,0,1-.4-.4.43.43,0,0,1,.4-.4h1.2v.4h.8v-1H20.1V1.6h-.8v.8a1.216,1.216,0,0,0-1.2,1.2,1.155,1.155,0,0,0,1.2,1.2h.8a.43.43,0,0,1,.4.4.43.43,0,0,1-.4.4H18.9V5.1h-.8V6.3h1.2V7Z" fill="green"/>
      <path id="Trazado_49" data-name="Trazado 49" d="M23.4,18.8,19.8,17H11.6V14.2l1.6-1.6a1.854,1.854,0,0,0,.7.2,1.559,1.559,0,0,0,1.2-.6l2.6,1.1v.3a1.9,1.9,0,0,0,3.8,0A2.039,2.039,0,0,0,20,11.7V8.5a4.154,4.154,0,0,0,3.8-4.2A4.225,4.225,0,0,0,19.6.1a4.14,4.14,0,0,0-4.1,4.2,4.232,4.232,0,0,0,3.8,4.2v3.1a1.991,1.991,0,0,0-1.2.8l-2.6-1.1v-.2a1.5,1.5,0,0,0-3,0,1.884,1.884,0,0,0,.2.8l-1,1.1V4.3A1.9,1.9,0,0,0,9.8,2.4H2A1.9,1.9,0,0,0,.1,4.3V17.4a2.019,2.019,0,0,0,1.6,1.9v.4a4.225,4.225,0,0,0,4.2,4.2,4.459,4.459,0,0,0,3.3-1.5H19.9l3.6-1.8a1.149,1.149,0,0,0,.6-.9,2.178,2.178,0,0,0-.7-.9ZM16.2,4.3a3.5,3.5,0,0,1,7,0,3.5,3.5,0,0,1-7,0Zm3.5,8.1a1.2,1.2,0,1,1,0,2.4,1.155,1.155,0,0,1-1.2-1.2A1.216,1.216,0,0,1,19.7,12.4Zm-5.8-1.9a.789.789,0,0,1,.8.8.709.709,0,0,1-.8.7.789.789,0,0,1-.8-.8A.709.709,0,0,1,13.9,10.5Zm-3.8,8.8a6.579,6.579,0,0,0-.4-1.5H19l-.5.8.5.8H10.1Zm.7-2.3H9.1L9,16.9,10.8,15Zm-10,.4V4.3A1.216,1.216,0,0,1,2,3.1H9.7a1.216,1.216,0,0,1,1.2,1.2v9.6L8.5,16.4a3.916,3.916,0,0,0-2.6-.9,4.552,4.552,0,0,0-2,.5.752.752,0,0,0-.7-.5H2.4a.789.789,0,0,0-.8.8V17a.752.752,0,0,0,.5.7c-.1.3-.2.5-.3.8a1.09,1.09,0,0,1-1-1.1ZM2.6,17H2.4v-.8h.8v.2A3.394,3.394,0,0,0,2.6,17Zm3.2,6.2a3.5,3.5,0,0,1,0-7,3.543,3.543,0,0,1,3.5,3.5A3.478,3.478,0,0,1,5.8,23.2Zm4.3-3.1H19l-.5.8.5.8H9.6a9.83,9.83,0,0,0,.5-1.6ZM23,19.9l-3.2,1.6-.4-.7.8-1.2-.8-1.2.4-.7L23,19.3c.1,0,.1.1.1.2s0,.4-.1.4Z" fill="green"/>
      <path id="Trazado_50" data-name="Trazado 50" d="M2.4,8.5H9.3a.789.789,0,0,0,.8-.8v-3a.789.789,0,0,0-.8-.8H2.4a.86.86,0,0,0-.8.8V7.8A.773.773,0,0,0,2.4,8.5Zm0-3.8H9.3V7.8H2.4Z" fill="green"/>
      <path id="Trazado_51" data-name="Trazado 51" d="M2.4,11.6h.8a.789.789,0,0,0,.8-.8V10a.789.789,0,0,0-.8-.8H2.4a.789.789,0,0,0-.8.8v.8A.789.789,0,0,0,2.4,11.6Zm0-1.5h.8v.8H2.4Z" fill="green"/>
      <path id="Trazado_52" data-name="Trazado 52" d="M6.2,9.3H5.5a.789.789,0,0,0-.8.8v.8a.789.789,0,0,0,.8.8h.8a.789.789,0,0,0,.8-.8v-.8A.961.961,0,0,0,6.2,9.3Zm-.7,1.5V10h.8v.8Z" fill="green"/>
      <path id="Trazado_53" data-name="Trazado 53" d="M9.3,9.3H8.5a.789.789,0,0,0-.8.8v.8a.789.789,0,0,0,.8.8h.8a.789.789,0,0,0,.8-.8v-.8A.86.86,0,0,0,9.3,9.3Zm-.8,1.5V10h.8v.8Z" fill="green"/>
      <path id="Trazado_54" data-name="Trazado 54" d="M2.4,14.7h.8a.789.789,0,0,0,.8-.8v-.8a.789.789,0,0,0-.8-.8H2.4a.789.789,0,0,0-.8.8v.8A.86.86,0,0,0,2.4,14.7Zm0-1.5h.8V14H2.4Z" fill="green"/>
      <path id="Trazado_55" data-name="Trazado 55" d="M6.2,12.4H5.5a.789.789,0,0,0-.8.8V14a.789.789,0,0,0,.8.8h.8a.789.789,0,0,0,.8-.8v-.8A.876.876,0,0,0,6.2,12.4Zm-.7,1.5v-.8h.8v.8Z" fill="green"/>
      <path id="Trazado_56" data-name="Trazado 56" d="M9.3,12.4H8.5a.789.789,0,0,0-.8.8V14a.789.789,0,0,0,.8.8h.8a.789.789,0,0,0,.8-.8v-.8A.789.789,0,0,0,9.3,12.4Zm-.8,1.5v-.8h.8v.8Z" fill="green"/>
    </g>
  </g>
</svg>
