<svg xmlns="http://www.w3.org/2000/svg" xmlns:xlink="http://www.w3.org/1999/xlink" width="24" height="24" viewBox="0 0 24 24">
  <defs>
    <clipPath id="clip-_08-Administracion-del-efectivo">
      <rect width="24" height="24"/>
    </clipPath>
  </defs>
  <g id="_08-Administracion-del-efectivo" data-name="08-Administracion-del-efectivo" clip-path="url(#clip-_08-Administracion-del-efectivo)">
    <rect width="24" height="24" fill="#FFF"/>
    <g id="_08-Administracion-del-efectivo-2" data-name="08-Administracion-del-efectivo">
      <path id="Trazado_57" data-name="Trazado 57" d="M3.6,16C1.8,16,0,16.5,0,17.6v4.8c0,1,1.8,1.6,3.6,1.6s3.6-.5,3.6-1.6V17.6C7.2,16.5,5.4,16,3.6,16Zm0,.8c1.8,0,2.8.6,2.8.8s-1,.8-2.8.8S.8,17.8.8,17.6,1.8,16.8,3.6,16.8Zm0,6.4c-1.8,0-2.8-.6-2.8-.8v-.6a6.71,6.71,0,0,0,2.8.6,6.71,6.71,0,0,0,2.8-.6v.6C6.4,22.6,5.4,23.2,3.6,23.2Zm0-1.6c-1.8,0-2.8-.6-2.8-.8v-.6a6.71,6.71,0,0,0,2.8.6,6.71,6.71,0,0,0,2.8-.6v.6C6.4,21,5.4,21.6,3.6,21.6Zm0-1.6c-1.8,0-2.8-.6-2.8-.8v-.6a6.71,6.71,0,0,0,2.8.6,6.71,6.71,0,0,0,2.8-.6v.6C6.4,19.4,5.4,20,3.6,20Z" fill="green"/>
      <path id="Trazado_58" data-name="Trazado 58" d="M12,12.8c-1.8,0-3.6.5-3.6,1.6v8c0,1,1.8,1.6,3.6,1.6s3.6-.5,3.6-1.6v-8C15.6,13.3,13.8,12.8,12,12.8Zm0,.8c1.8,0,2.8.6,2.8.8s-1,.8-2.8.8-2.8-.6-2.8-.8S10.2,13.6,12,13.6Zm0,9.6c-1.8,0-2.8-.6-2.8-.8v-.6a6.833,6.833,0,0,0,5.6,0v.6C14.8,22.6,13.8,23.2,12,23.2Zm0-1.6c-1.8,0-2.8-.6-2.8-.8v-.6a6.833,6.833,0,0,0,5.6,0v.6C14.8,21,13.8,21.6,12,21.6ZM12,20c-1.8,0-2.8-.6-2.8-.8v-.6a6.833,6.833,0,0,0,5.6,0v.6C14.8,19.4,13.8,20,12,20Zm0-1.6c-1.8,0-2.8-.6-2.8-.8V17a6.833,6.833,0,0,0,5.6,0v.6C14.8,17.8,13.8,18.4,12,18.4Zm0-1.6c-1.8,0-2.8-.6-2.8-.8v-.6a6.833,6.833,0,0,0,5.6,0V16C14.8,16.2,13.8,16.8,12,16.8Z" fill="green"/>
      <path id="Trazado_59" data-name="Trazado 59" d="M20.4,8c-1.8,0-3.6.5-3.6,1.6V22.4c0,1,1.8,1.6,3.6,1.6s3.6-.5,3.6-1.6V9.6C24,8.5,22.1,8,20.4,8Zm0,.8c1.8,0,2.8.6,2.8.8s-1,.8-2.8.8-2.8-.6-2.8-.8S18.6,8.8,20.4,8.8Zm0,14.4c-1.8,0-2.8-.6-2.8-.8v-.6a6.833,6.833,0,0,0,5.6,0v.6C23.2,22.6,22.2,23.2,20.4,23.2Zm0-1.6c-1.8,0-2.8-.6-2.8-.8v-.6a6.833,6.833,0,0,0,5.6,0v.6C23.2,21,22.2,21.6,20.4,21.6Zm0-1.6c-1.8,0-2.8-.6-2.8-.8v-.6a6.833,6.833,0,0,0,5.6,0v.6C23.2,19.4,22.2,20,20.4,20Zm0-1.6c-1.8,0-2.8-.6-2.8-.8V17a6.833,6.833,0,0,0,5.6,0v.6C23.2,17.8,22.2,18.4,20.4,18.4Zm0-1.6c-1.8,0-2.8-.6-2.8-.8v-.6a6.833,6.833,0,0,0,5.6,0V16C23.2,16.2,22.2,16.8,20.4,16.8Zm0-1.6c-1.8,0-2.8-.6-2.8-.8v-.6a6.833,6.833,0,0,0,5.6,0v.6C23.2,14.6,22.2,15.2,20.4,15.2Zm0-1.6c-1.8,0-2.8-.6-2.8-.8v-.6a6.833,6.833,0,0,0,5.6,0v.6C23.2,13,22.2,13.6,20.4,13.6Zm0-1.6c-1.8,0-2.8-.6-2.8-.8v-.6a6.833,6.833,0,0,0,5.6,0v.6C23.2,11.4,22.2,12,20.4,12Z" fill="green"/>
      <path id="Trazado_60" data-name="Trazado 60" d="M19.6,0V.8h3L15,8.4H6.6L.1,14.1l.5.6L6.9,9.2h8.4l7.8-7.8v3H24V0Z" fill="green"/>
    </g>
  </g>
</svg>
