<svg xmlns="http://www.w3.org/2000/svg" xmlns:xlink="http://www.w3.org/1999/xlink" width="24" height="24" viewBox="0 0 24 24">
  <defs>
    <clipPath id="clip-_09-Juridico">
      <rect width="24" height="24"/>
    </clipPath>
  </defs>
  <g id="_09-Juridico" data-name="09-Juridico" clip-path="url(#clip-_09-Juridico)">
    <rect width="24" height="24" fill="#FFF"/>
    <g id="balanza" transform="translate(0 -49.19)">
      <g id="Grupo_12" data-name="Grupo 12" transform="translate(0 49.19)">
        <path id="Trazado_61" data-name="Trazado 61" d="M23.656,64.017l-3.04-6.423h1.269a.529.529,0,0,0,0-1.057H14.247a2.3,2.3,0,0,0-4.493,0H2.115a.529.529,0,0,0,0,1.057H3.383L.344,64.017A.529.529,0,0,0,0,64.493,4.176,4.176,0,0,0,4.176,68.67H4.2a4.282,4.282,0,0,0,4.229-4.2.449.449,0,0,0-.37-.449l-3.04-6.423H9.753a2.326,2.326,0,0,0,1.718,1.612V74.092a3.6,3.6,0,0,0-3.119,3.595.5.5,0,0,0,.5.5h6.265a.5.5,0,0,0,.528-.475c0-.009,0-.018,0-.027a3.6,3.6,0,0,0-3.119-3.595V59.207a2.326,2.326,0,0,0,1.718-1.612h4.731l-3.04,6.423a.476.476,0,0,0-.37.476,4.176,4.176,0,0,0,4.176,4.176h.027A4.256,4.256,0,0,0,24,64.493.555.555,0,0,0,23.656,64.017ZM4.2,67.612h0A3.119,3.119,0,0,1,1.11,65H7.322A3.225,3.225,0,0,1,4.2,67.612Zm2.67-3.674H1.533L4.2,58.2Zm7.665,13.194H9.463A2.722,2.722,0,0,1,12,75.07,2.722,2.722,0,0,1,14.537,77.132ZM12,58.2a1.242,1.242,0,1,1,1.242-1.242A1.242,1.242,0,0,1,12,58.2Zm7.8,0,2.67,5.736H17.128Zm-.026,9.41A3.119,3.119,0,0,1,16.678,65H22.89A3.225,3.225,0,0,1,19.771,67.612Z" transform="translate(0 -54.727)" fill="green"/>
      </g>
    </g>
  </g>
</svg>
