<svg xmlns="http://www.w3.org/2000/svg" xmlns:xlink="http://www.w3.org/1999/xlink" width="24" height="24" viewBox="0 0 24 24">
  <defs>
    <clipPath id="clip-_10-Auditoria">
      <rect width="24" height="24"/>
    </clipPath>
  </defs>
  <g id="_10-Auditoria" data-name="10-Auditoria" clip-path="url(#clip-_10-Auditoria)">
    <rect width="24" height="24" fill="#FFF"/>
    <g id="_10-Auditoria-2" data-name="10-Auditoria">
      <g id="Grupo_14" data-name="Grupo 14" transform="translate(5.5 16)">
        <g id="Grupo_13" data-name="Grupo 13">
          <path id="Trazado_62" data-name="Trazado 62" d="M7,16a1.538,1.538,0,0,0-1.5,1.5v5A1.538,1.538,0,0,0,7,24a1.538,1.538,0,0,0,1.5-1.5v-5A1.538,1.538,0,0,0,7,16Zm.5,6.5a.5.5,0,0,1-1,0v-5a.5.5,0,0,1,1,0Z" transform="translate(-5.5 -16)" fill="green"/>
        </g>
      </g>
      <g id="Grupo_16" data-name="Grupo 16" transform="translate(6.5 13.5)">
        <g id="Grupo_15" data-name="Grupo 15">
          <rect id="Rectángulo_3" data-name="Rectángulo 3" width="1" height="3" fill="green"/>
        </g>
      </g>
      <g id="Grupo_18" data-name="Grupo 18" transform="translate(18 16)">
        <g id="Grupo_17" data-name="Grupo 17">
          <path id="Trazado_63" data-name="Trazado 63" d="M23.5,16h-3A2.476,2.476,0,0,0,18,18.5v3a.472.472,0,0,0,.5.5c.1,0,.3-.1.4-.1l5-5c.1-.1.1-.2.1-.4A.472.472,0,0,0,23.5,16ZM19,20.3V18.5A1.538,1.538,0,0,1,20.5,17h1.8Z" transform="translate(-18 -16)" fill="green"/>
        </g>
      </g>
      <g id="Grupo_20" data-name="Grupo 20" transform="translate(10)">
        <g id="Grupo_19" data-name="Grupo 19">
          <path id="Trazado_64" data-name="Trazado 64" d="M21.5,0H13V1h8.5A1.538,1.538,0,0,1,23,2.5V16.3L18.3,21H10v1h8.5c.1,0,.3-.1.4-.1l5-5c.1-.1.1-.2.1-.4V2.5A2.476,2.476,0,0,0,21.5,0Z" transform="translate(-10)" fill="green"/>
        </g>
      </g>
      <g id="Grupo_22" data-name="Grupo 22">
        <g id="Grupo_21" data-name="Grupo 21">
          <path id="Trazado_65" data-name="Trazado 65" d="M7,0A6.957,6.957,0,0,0,0,7a6.957,6.957,0,0,0,7,7,6.957,6.957,0,0,0,7-7A6.957,6.957,0,0,0,7,0ZM7,13a6,6,0,1,1,6-6A6.018,6.018,0,0,1,7,13Z" fill="green"/>
        </g>
      </g>
      <g id="Grupo_24" data-name="Grupo 24" transform="translate(3 3)">
        <g id="Grupo_23" data-name="Grupo 23">
          <path id="Trazado_66" data-name="Trazado 66" d="M3,7H4A2.946,2.946,0,0,1,7,4V3A4.012,4.012,0,0,0,3,7Z" transform="translate(-3 -3)" fill="green"/>
        </g>
      </g>
    </g>
  </g>
</svg>
