<svg xmlns="http://www.w3.org/2000/svg" xmlns:xlink="http://www.w3.org/1999/xlink" width="24" height="24" viewBox="0 0 24 24">
  <defs>
    <clipPath id="clip-_11-Normatividad">
      <rect width="24" height="24"/>
    </clipPath>
  </defs>
  <g id="_11-Normatividad" data-name="11-Normatividad" clip-path="url(#clip-_11-Normatividad)">
    <rect width="24" height="24" fill="#FFF"/>
    <g id="_11-Normatividad-2" data-name="11-Normatividad" transform="translate(-0.1 -0.05)">
      <g id="Grupo_26" data-name="Grupo 26" transform="translate(0.1 20.025)">
        <g id="Grupo_25" data-name="Grupo 25">
          <path id="Trazado_67" data-name="Trazado 67" d="M12.578,23.925H1.609A1.548,1.548,0,0,1,.1,22.416V21.409A1.548,1.548,0,0,1,1.609,19.9H12.578a1.548,1.548,0,0,1,1.509,1.509v1.006A1.482,1.482,0,0,1,12.578,23.925ZM1.609,20.906a.475.475,0,0,0-.5.5v1.006a.475.475,0,0,0,.5.5H12.578a.475.475,0,0,0,.5-.5V21.409a.475.475,0,0,0-.5-.5Z" transform="translate(-0.1 -19.9)" fill="green"/>
        </g>
      </g>
      <g id="Grupo_37" data-name="Grupo 37" transform="translate(4.025 0.05)">
        <g id="Grupo_33" data-name="Grupo 33">
          <g id="Grupo_28" data-name="Grupo 28" transform="translate(2.358 2.327)">
            <g id="Grupo_27" data-name="Grupo 27">
              <path id="Trazado_68" data-name="Trazado 68" d="M10.727,12.664a.717.717,0,0,1-.6-.3L6.6,8.941c-.6-.6,0-1.711.3-2.013A25.488,25.488,0,0,1,8.715,4.715,10.969,10.969,0,0,1,10.929,2.9c.3-.2,1.409-.906,2.013-.3l3.522,3.522c.6.6-.1,1.711-.3,2.013A25.488,25.488,0,0,1,14.35,10.35a10.969,10.969,0,0,1-2.214,1.811,4.6,4.6,0,0,1-1.409.5Zm1.509-9.358A8.2,8.2,0,0,0,9.419,5.419C7.809,6.929,7.306,8.035,7.306,8.337l3.421,3.421a8.2,8.2,0,0,0,2.818-2.113,8.846,8.846,0,0,0,2.113-2.818Z" transform="translate(-6.343 -2.362)" fill="green"/>
            </g>
          </g>
          <g id="Grupo_30" data-name="Grupo 30" transform="translate(0 7.748)">
            <g id="Grupo_29" data-name="Grupo 29">
              <path id="Trazado_69" data-name="Trazado 69" d="M9.031,14.945a1.167,1.167,0,0,1-1.006-.4L4.5,11.02A1.616,1.616,0,0,1,4,9.914a1.537,1.537,0,0,1,.4-1.006l.7-.7a1.459,1.459,0,0,1,2.113,0l3.522,3.522a1.459,1.459,0,0,1,0,2.113l-.7.7a1.167,1.167,0,0,1-1.006.4ZM6.214,8.706c-.1,0-.3,0-.3.1l-.7.805c-.1.1-.2.2-.2.3a1.014,1.014,0,0,0,.1.3l3.522,3.522a.486.486,0,0,0,.7,0l.7-.7a.486.486,0,0,0,0-.7L6.616,8.907a.523.523,0,0,0-.4-.2Z" transform="translate(-4 -7.75)" fill="green"/>
            </g>
          </g>
          <g id="Grupo_32" data-name="Grupo 32" transform="translate(7.799)">
            <g id="Grupo_31" data-name="Grupo 31">
              <path id="Trazado_70" data-name="Trazado 70" d="M16.731,7.245a1.167,1.167,0,0,1-1.006-.4L12.2,3.32a1.459,1.459,0,0,1,0-2.113l.7-.7A1.459,1.459,0,0,1,15.02.5l3.421,3.522a1.459,1.459,0,0,1,0,2.113l-.7.7a1.167,1.167,0,0,1-1.006.4ZM13.914,1.107c-.1,0-.3,0-.3.1l-.7.7a.486.486,0,0,0,0,.7l3.522,3.522a.486.486,0,0,0,.7,0l.7-.7a.486.486,0,0,0,0-.7L14.316,1.207A.605.605,0,0,0,13.914,1.107ZM18.14,5.736Z" transform="translate(-11.75 -0.05)" fill="green"/>
            </g>
          </g>
        </g>
        <g id="Grupo_36" data-name="Grupo 36" transform="translate(8.816 8.84)">
          <g id="Grupo_35" data-name="Grupo 35" transform="translate(0)">
            <g id="Grupo_34" data-name="Grupo 34">
              <path id="Trazado_71" data-name="Trazado 71" d="M22.058,20.07a2.755,2.755,0,0,1-1.912-1.006c-.7-.7-4.73-5.132-7.245-8.151a.5.5,0,1,1,.805-.6c2.616,3.119,6.642,7.447,7.245,8.05,1.107,1.107,1.61.7,1.811.4a.856.856,0,0,0,.3-.5,2.1,2.1,0,0,0-.7-1.308c-.6-.6-4.931-4.528-8.05-7.245-.3-.2-.4-.5-.2-.7a.62.62,0,0,1,.7-.1c3.019,2.516,7.447,6.541,8.151,7.245a2.621,2.621,0,0,1,1.006,2.113,1.879,1.879,0,0,1-.6,1.107,1.584,1.584,0,0,1-1.308.7Z" transform="translate(-12.761 -8.834)" fill="green"/>
            </g>
          </g>
        </g>
      </g>
    </g>
  </g>
</svg>
