<svg xmlns="http://www.w3.org/2000/svg" xmlns:xlink="http://www.w3.org/1999/xlink" width="24" height="24" viewBox="0 0 24 24">
  <defs>
    <clipPath id="clip-_12-Prevencion-fraudes">
      <rect width="24" height="24"/>
    </clipPath>
  </defs>
  <g id="_12-Prevencion-fraudes" data-name="12-Prevencion-fraudes" clip-path="url(#clip-_12-Prevencion-fraudes)">
    <rect width="24" height="24" fill="#FFF"/>
    <g id="_12-Prevencion-fraudes-2" data-name="12-Prevencion-fraudes">
      <path id="Trazado_72" data-name="Trazado 72" d="M18,24h-.2c-.2-.1-5.8-2.5-5.8-7.4V12.4a.55.55,0,0,1,.3-.5L17.8,10h.3l5.5,1.9a.55.55,0,0,1,.3.5v4.2c0,4.9-5.6,7.3-5.8,7.4ZM13,12.7v3.8c0,3.8,4.1,6,5,6.4.9-.5,5-2.6,5-6.4V12.7L18,11Z" fill="green"/>
      <path id="Trazado_73" data-name="Trazado 73" d="M17.5,19h0a.52.52,0,0,1-.4-.2l-2-2.5a.5.5,0,1,1,.8-.6l1.6,2.1,3.1-3.1a.495.495,0,0,1,.7.7l-3.5,3.5a1.007,1.007,0,0,1-.3.1Z" fill="green"/>
      <path id="Trazado_74" data-name="Trazado 74" d="M12.5,9.7a.472.472,0,0,1-.5-.5V3a2,2,0,0,1,4,0V8.2a.5.5,0,0,1-1,0V3a1,1,0,0,0-2,0V9.2A.472.472,0,0,1,12.5,9.7Z" fill="green"/>
      <path id="Trazado_75" data-name="Trazado 75" d="M12.5,9.7a.472.472,0,0,1-.5-.5V2a.945.945,0,0,0-1-1,.945.945,0,0,0-1,1V3A.5.5,0,0,1,9,3V2a2,2,0,0,1,4,0V9.2A.472.472,0,0,1,12.5,9.7Z" fill="green"/>
      <path id="Trazado_76" data-name="Trazado 76" d="M12,24H9.5C6.6,24,4.6,22,3,17.7A8.982,8.982,0,0,0,.8,14,2.04,2.04,0,0,1,0,12.5C0,12.2.1,11,2.5,11A4.905,4.905,0,0,1,6,12.9V3a2,2,0,0,1,4,0v8.5a.5.5,0,0,1-1,0V3A.945.945,0,0,0,8,2,1,1,0,0,0,7,3V14.5a.664.664,0,0,1-.4.5.481.481,0,0,1-.6-.2s-1.5-2.7-3.6-2.7c-1-.1-1.4.2-1.4.4,0,.3.1.4.5.7A11.47,11.47,0,0,1,4,17.3C5.3,21.2,7.1,23,9.5,23h3.1a.5.5,0,0,1,0,1Z" fill="green"/>
      <path id="Trazado_77" data-name="Trazado 77" d="M15.5,8.7a.472.472,0,0,1-.5-.5V6a2,2,0,0,1,4,0V7.5a.5.5,0,0,1-1,0V6a1,1,0,0,0-2,0V8.2A.472.472,0,0,1,15.5,8.7Z" fill="green"/>
    </g>
  </g>
</svg>
