<svg xmlns="http://www.w3.org/2000/svg" xmlns:xlink="http://www.w3.org/1999/xlink" width="24" height="24" viewBox="0 0 24 24">
  <defs>
    <clipPath id="clip-_13-Programas-sociales">
      <rect width="24" height="24"/>
    </clipPath>
  </defs>
  <g id="_13-Programas-sociales" data-name="13-Programas-sociales" clip-path="url(#clip-_13-Programas-sociales)">
    <rect width="24" height="24" fill="#FFF"/>
    <g id="community_1_" data-name="community (1)">
      <path id="Trazado_78" data-name="Trazado 78" d="M24,5.156A1.409,1.409,0,0,0,22.963,3.8a1.4,1.4,0,0,0-.937-1.875A1.405,1.405,0,0,0,20.719,0H15.666A6.96,6.96,0,0,0,12.6.725l-.426.213H7.031a1.4,1.4,0,0,0-.518.1,1.406,1.406,0,0,0-2.713,0,1.4,1.4,0,0,0-1.875.938A1.405,1.405,0,0,0,0,3.281V8.334a7.284,7.284,0,0,0,.937,3.5v5.139a1.4,1.4,0,0,0,.1.518,1.406,1.406,0,0,0,0,2.713,1.4,1.4,0,0,0,.938,1.875A1.405,1.405,0,0,0,3.281,24h1.13a.469.469,0,0,0,0-.938H3.281a.469.469,0,1,1,0-.937h.938a.469.469,0,0,0,0-.937H2.344a.469.469,0,0,1,0-.937H4.219a.469.469,0,1,0,0-.937H1.406a.469.469,0,0,1,0-.937H4.219a.469.469,0,0,0,0-.938H2.344a.469.469,0,1,1,0-.937H7.031a.469.469,0,0,0,.469-.469v-.469H8.681A2.9,2.9,0,0,1,11.3,17.177a.469.469,0,0,0,.42.26h3.844v4.219a1.4,1.4,0,0,0,.081.469H12.656a.468.468,0,0,0-.21.049l-.523.262a6.015,6.015,0,0,1-2.651.626H8.62a.469.469,0,0,0,0,.938h.651a6.959,6.959,0,0,0,3.069-.725l.426-.213h4.2a1.4,1.4,0,0,0,.518-.1,1.406,1.406,0,0,0,2.713,0,1.4,1.4,0,0,0,1.875-.937A1.405,1.405,0,0,0,24,20.719V15.094a.466.466,0,0,0-.045-.2,7.008,7.008,0,0,0-.68-2.3l-.213-.426V7.031a1.4,1.4,0,0,0-.1-.518A1.408,1.408,0,0,0,24,5.156ZM6.562,15.562H2.344a1.4,1.4,0,0,0-.469.081V11.719a.468.468,0,0,0-.05-.21A6.606,6.606,0,0,1,.937,8.334V3.281a.469.469,0,1,1,.937,0v.938a.469.469,0,0,0,.937,0V2.344a.469.469,0,0,1,.938,0V4.219a.469.469,0,0,0,.938,0V1.406a.469.469,0,0,1,.938,0V4.219a.469.469,0,0,0,.938,0V2.344a.469.469,0,0,1,.938,0V7.031a.469.469,0,0,0,.469.469h.469V8.681A2.938,2.938,0,0,1,6.823,11.3a.469.469,0,0,0-.26.42Zm2.119-.937H7.5V12A3.832,3.832,0,0,0,9.375,8.681V7.5H12a3.832,3.832,0,0,0,3.316,1.875H16.5V12a3.832,3.832,0,0,0-1.875,3.316V16.5H12a3.832,3.832,0,0,0-3.316-1.875Zm14.381,6.094a.469.469,0,1,1-.937,0v-.938a.469.469,0,0,0-.938,0v1.875a.469.469,0,1,1-.937,0V19.781a.469.469,0,0,0-.938,0v2.813a.469.469,0,0,1-.937,0V19.781a.469.469,0,0,0-.937,0v1.875a.469.469,0,1,1-.937,0V16.969a.469.469,0,0,0-.469-.469h-.469V15.319A2.9,2.9,0,0,1,17.177,12.7a.469.469,0,0,0,.26-.42V8.438h4.219a1.4,1.4,0,0,0,.469-.081v3.924a.468.468,0,0,0,.049.21l.262.523a6.015,6.015,0,0,1,.626,2.651ZM22.594,5.625H19.781a.469.469,0,0,0,0,.938h1.875a.469.469,0,1,1,0,.938H16.969a.469.469,0,0,0-.469.469v.469H15.319A2.938,2.938,0,0,1,12.7,6.823a.469.469,0,0,0-.42-.26H8.437V2.344a1.4,1.4,0,0,0-.081-.469h3.924a.468.468,0,0,0,.21-.05A6.606,6.606,0,0,1,15.666.938h5.053a.469.469,0,0,1,0,.938h-.937a.469.469,0,1,0,0,.937h1.875a.469.469,0,1,1,0,.938H19.781a.469.469,0,1,0,0,.937h2.813a.469.469,0,0,1,0,.938Z" fill="green"/>
      <circle id="Elipse_1" data-name="Elipse 1" cx="0.424" cy="0.424" r="0.424" transform="translate(6.057 23.037)" fill="green"/>
    </g>
  </g>
</svg>
