<svg xmlns="http://www.w3.org/2000/svg" 
xmlns:xlink="http://www.w3.org/1999/xlink" 
width="24" 
height="24" 
viewBox="0 0 24 24">
  <defs>
    <clipPath id="clip-_14-Administracion-y-finanzas">
      <rect width="24" height="24"/>
    </clipPath>
  </defs>
  <g id="_14-Administracion-y-finanzas" 
  data-name="14-Administracion-y-finanzas" 
  clip-path="url(#clip-_14-Administracion-y-finanzas)">
    <rect width="24" height="24" fill="#FFF"/>
    <g id="administracion" transform="translate(-0.999 -0.059)">
      <g id="Grupo_39" data-name="Grupo 39" transform="translate(0.999 0.059)">
        <g id="Grupo_38" data-name="Grupo 38">
          <path id="Trazado_79" data-name="Trazado 79" d="M61.883,376.994h.96a.4.4,0,0,0,0-.8H62.6v-.267a.4.4,0,0,0-.8,0v.275a1.065,1.065,0,0,0,.08,2.125h.32a.268.268,0,0,1,0,.533h-.96a.4.4,0,1,0,0,.8h.56v.267a.4.4,0,1,0,.8,0v-.349a1.069,1.069,0,0,0,.64-.984,1.055,1.055,0,0,0-1.04-1.067h-.32a.268.268,0,0,1,0-.533Z" transform="translate(-58.038 -357.928)" fill="green"/>
          <path id="Trazado_80" data-name="Trazado 80" d="M250.176,360.46h-.8v-1.6a.4.4,0,1,0-.8,0v2a.4.4,0,0,0,.4.4h1.2a.4.4,0,0,0,0-.8Z" transform="translate(-236.972 -341.661)" fill="green"/>
          <path id="Trazado_81" data-name="Trazado 81" d="M24.94,19.338a4,4,0,0,0-3.537-3.26v-3.22a.8.8,0,0,0-.8-.8H18.585a2.326,2.326,0,0,0-1.247-1.826L15.08,9.074a.489.489,0,0,1-.259-.434V8.115c.045-.058.093-.124.143-.2a5.765,5.765,0,0,0,.7-1.385A1.108,1.108,0,0,0,16.2,5.55V4.579a1.149,1.149,0,0,0-.2-.685V2.659A2.373,2.373,0,0,0,15.451.948,3.114,3.114,0,0,0,13,.059a3.11,3.11,0,0,0-2.448.89A2.37,2.37,0,0,0,10,2.659V3.9a1.149,1.149,0,0,0-.2.684v.97a1.132,1.132,0,0,0,.333.834,5.331,5.331,0,0,0,.812,1.723v.512a.486.486,0,0,1-.244.427L8.6,10.225a2.343,2.343,0,0,0-1.178,1.833H5.4a.8.8,0,0,0-.8.8v3.22a4,4,0,1,0,4.141,5.383,4.792,4.792,0,0,0,8.519,0,4.016,4.016,0,0,0,1.965,2.175l.034.016a3.95,3.95,0,0,0,3.484,0l.034-.016A4,4,0,0,0,24.94,19.338ZM8.2,12.279a1.55,1.55,0,0,1,.783-1.358L11.1,9.742a1.287,1.287,0,0,0,.654-1.123V7.974a.4.4,0,0,0-.09-.252,4.488,4.488,0,0,1-.776-1.649.4.4,0,0,0-.17-.246.323.323,0,0,1-.11-.277V4.579a.33.33,0,0,1,.072-.244.4.4,0,0,0,.128-.293v-1.4a.28.28,0,0,0,0-.048,1.577,1.577,0,0,1,.36-1.12A2.376,2.376,0,0,1,13,.859a2.375,2.375,0,0,1,1.84.611,1.58,1.58,0,0,1,.362,1.12.434.434,0,0,0,0,.051v1.4a.4.4,0,0,0,.128.293.33.33,0,0,1,.073.243v.97a.307.307,0,0,1-.187.311.4.4,0,0,0-.261.261,4.987,4.987,0,0,1-.649,1.343,3.1,3.1,0,0,1-.188.249.4.4,0,0,0-.1.26v.666a1.28,1.28,0,0,0,.694,1.146l2.257,1.158a1.54,1.54,0,0,1,.831,1.384v.532H8.2ZM5,23.258a3.2,3.2,0,1,1,3.2-3.2A3.2,3.2,0,0,1,5,23.258Zm3.388-5.316A4,4,0,0,0,5.4,16.078v-3.22h2v.158a.64.64,0,0,0,.636.642H12.6v.82A4.8,4.8,0,0,0,8.392,17.941ZM13,23.258a4,4,0,1,1,4-4A4,4,0,0,1,13,23.258Zm.4-8.779v-.82h4.563a.64.64,0,0,0,.636-.642v-.158h2v3.22a4,4,0,0,0-2.988,1.863A4.8,4.8,0,0,0,13.4,14.478ZM23,22.552V20.458a.4.4,0,0,0-.8,0v2.564a3.184,3.184,0,0,1-.8.208V20.458a.4.4,0,1,0-.8,0V23.23a3.186,3.186,0,0,1-.8-.208V21.658a.4.4,0,0,0-.8,0v.894a3.2,3.2,0,1,1,4,0Z" transform="translate(-0.999 -0.059)" fill="green"/>
          <path id="Trazado_82" data-name="Trazado 82" d="M388.326,384.179l-.517.517-.517-.517a.4.4,0,0,0-.566,0l-1.6,1.6a.4.4,0,1,0,.566.566l1.317-1.317.517.517a.4.4,0,0,0,.566,0l.8-.8a.4.4,0,0,0-.566-.566Z" transform="translate(-367.005 -366.063)" fill="green"/>
        </g>
      </g>
    </g>
  </g>
</svg>
